<svg width="128" height="128" viewBox="0 0 128 128" fill="none" xmlns="http://www.w3.org/2000/svg">
<g clip-path="url(#clip0_2104_25)">
<path d="M112 0H16C7.16344 0 0 7.16344 0 16V112C0 120.837 7.16344 128 16 128H112C120.837 128 128 120.837 128 112V16C128 7.16344 120.837 0 112 0Z" fill="url(#paint0_linear_2104_25)"/>
<path d="M25.4643 102.424C22.3635 96.1098 21.308 88.9852 22.4446 82.0425C23.5812 75.1001 26.8534 68.6846 31.8058 63.6892L43.0513 52.3562C44.4768 50.9267 46.1703 49.7926 48.0347 49.0188C49.8991 48.245 51.8978 47.8467 53.9163 47.8467C55.9348 47.8467 57.9336 48.245 59.798 49.0188C61.6624 49.7926 63.3558 50.9267 64.7814 52.3562L75.6464 63.224C77.0755 64.6499 78.2093 66.3438 78.983 68.2087C79.7565 70.0736 80.1547 72.0728 80.1547 74.0918C80.1547 76.1109 79.7565 78.1101 78.983 79.9753C78.2093 81.8399 77.0755 83.5334 75.6464 84.9598L64.5277 96.0814C59.5073 101.108 53.032 104.426 46.0204 105.564C39.0087 106.703 31.8167 105.605 25.4643 102.424Z" stroke="#131317" stroke-width="7.5" stroke-miterlimit="10"/>
<path d="M60.7721 99.5388L28.4639 67.231" stroke="#131317" stroke-width="7.5" stroke-miterlimit="10"/>
<path d="M41.3857 54.3076L73.694 86.6155" stroke="#131317" stroke-width="7.5" stroke-miterlimit="10"/>
<path d="M91.8873 60.7694L74.2856 53.7133L67.2295 36.1117L81.0704 21.9995L82.117 24.4032L88.5526 39.4459L105.999 46.9285L91.8873 60.7694Z" stroke="#131317" stroke-width="7.5" stroke-miterlimit="10"/>
</g>
<defs>
<linearGradient id="paint0_linear_2104_25" x1="0" y1="0" x2="128" y2="128" gradientUnits="userSpaceOnUse">
<stop stop-color="#FFB4AB"/>
<stop offset="1" stop-color="#FE554A"/>
</linearGradient>
<clipPath id="clip0_2104_25">
<rect width="128" height="128" fill="white"/>
</clipPath>
</defs>
</svg>
